HIERARCHY
ROOT joint_0
{
	OFFSET 0.000000 0.000000 0.000000
	CHANNELS 6 Xposition Yposition Zposition Zrotation Yrotation Xrotation 
	JOINT joint_1
	{
		OFFSET 7.745728 2.152245 124.869995
		CHANNELS 3 Zrotation Yrotation Xrotation
		JOINT joint_2
		{
			OFFSET -6.359406 2.617477 113.975952
			CHANNELS 3 Zrotation Yrotation Xrotation
			JOINT joint_3
			{
				OFFSET -8.187927 3.340103 113.713013
				CHANNELS 3 Zrotation Yrotation Xrotation
				JOINT joint_4
				{
					OFFSET 2.859222 5.755905 159.680054
					CHANNELS 3 Zrotation Yrotation Xrotation
					JOINT joint_5
					{
						OFFSET 22.724274 2.598469 88.906982
						CHANNELS 3 Zrotation Yrotation Xrotation
						End Site
						{
							OFFSET 0.000000 0.000000 0.000000
						}
					}
				}
				JOINT joint_6
				{
					OFFSET 2.312134 -31.513222 90.723022
					CHANNELS 3 Zrotation Yrotation Xrotation
					JOINT joint_7
					{
						OFFSET -0.486389 -150.827950 -17.660034
						CHANNELS 3 Zrotation Yrotation Xrotation
						JOINT joint_8
						{
							OFFSET 15.633850 -16.961029 -297.395020
							CHANNELS 3 Zrotation Yrotation Xrotation
							JOINT joint_9
							{
								OFFSET 5.600098 1.609863 -262.782959
								CHANNELS 3 Zrotation Yrotation Xrotation
								End Site
								{
									OFFSET 0.000000 0.000000 0.000000
								}
							}
						}
					}
				}
				JOINT joint_10
				{
					OFFSET 1.012756 37.963039 88.243042
					CHANNELS 3 Zrotation Yrotation Xrotation
					JOINT joint_11
					{
						OFFSET -2.397430 150.471996 -20.492065
						CHANNELS 3 Zrotation Yrotation Xrotation
						JOINT joint_12
						{
							OFFSET -10.575745 12.779427 -297.765015
							CHANNELS 3 Zrotation Yrotation Xrotation
							JOINT joint_13
							{
								OFFSET 196.311081 2.689713 -176.286011
								CHANNELS 3 Zrotation Yrotation Xrotation
								End Site
								{
									OFFSET 0.000000 0.000000 0.000000
								}
							}
						}
					}
				}
			}
		}
	}
	JOINT joint_14
	{
		OFFSET 1.244965 -96.891136 -118.152039
		CHANNELS 3 Zrotation Yrotation Xrotation
		JOINT joint_15
		{
			OFFSET -2.982971 -16.401871 -443.439026
			CHANNELS 3 Zrotation Yrotation Xrotation
			JOINT joint_16
			{
				OFFSET -42.052063 -15.386002 -460.966980
				CHANNELS 3 Zrotation Yrotation Xrotation
				JOINT joint_17
				{
					OFFSET 177.916595 102.818184 -88.655001
					CHANNELS 3 Zrotation Yrotation Xrotation
					End Site
					{
						OFFSET 0.000000 0.000000 0.000000
					}
				}
			}
		}
	}
	JOINT joint_18
	{
		OFFSET 1.788635 96.476997 -118.463074
		CHANNELS 3 Zrotation Yrotation Xrotation
		JOINT joint_19
		{
			OFFSET -9.555542 8.093691 -443.574951
			CHANNELS 3 Zrotation Yrotation Xrotation
			JOINT joint_20
			{
				OFFSET -48.427551 9.415819 -460.500023
				CHANNELS 3 Zrotation Yrotation Xrotation
				JOINT joint_21
				{
					OFFSET 204.978119 20.223980 -87.523996
					CHANNELS 3 Zrotation Yrotation Xrotation
					End Site
					{
						OFFSET 0.000000 0.000000 0.000000
					}
				}
			}
		}
	}
}
MOTION
Frames: 7
Frame Time: 0.016667
369.529541 -14.896555 1141.869995 1.083483 1.859502 0.701300 1.287096 -0.410376 -0.685640 1.328408 -0.072629 0.142715 1.297880 0.217839 -0.158213 -0.237471 0.211222 0.897765 0.000000 0.000000 0.000000 2.696086 2.833486 -1.488535 -0.545843 3.206628 1.621212 -0.028555 -5.308812 2.144409 0.000000 0.000000 0.000000 -2.936171 -2.930172 -0.958434 -2.269664 -2.665195 0.790889 -0.233393 48.509351 -1.373007 0.000000 0.000000 0.000000 -8.986416 -1.962202 -0.912293 -9.170988 3.403778 -3.319108 -9.133550 -1.833305 -3.480153 0.000000 0.000000 0.000000 -4.152669 -1.687689 -0.630052 -4.074314 2.597527 -0.391139 -3.939862 2.172776 -1.893597 0.000000 0.000000 0.000000 
374.322449 -16.149157 1144.963989 2.761479 0.695004 0.958900 0.822991 1.462321 -1.579612 0.955772 -0.168108 0.262212 0.901539 0.334860 -0.274371 -0.247127 -0.209222 0.983022 0.000000 0.000000 0.000000 5.690448 3.289706 -0.206213 -0.427241 3.999560 2.758601 -0.068608 -4.813171 -0.475453 0.000000 0.000000 0.000000 -4.495027 -2.198981 0.086676 -1.868180 -1.722204 0.613558 0.089014 45.861833 -1.202823 0.000000 0.000000 0.000000 -9.593740 0.074808 -1.322882 -9.683252 2.759768 -3.202345 -9.611680 -1.594626 -3.854748 0.000000 0.000000 0.000000 -4.894555 -0.769603 -0.846123 -4.827717 3.313581 -0.315216 -4.666781 2.467010 -2.232145 0.000000 0.000000 0.000000 
380.814087 -17.652702 1148.401978 4.362570 -0.179074 1.184426 0.344579 2.869586 -2.694759 0.590200 -0.216960 0.531433 0.502385 0.371828 -0.427029 -0.227919 -0.282253 0.909264 0.000000 0.000000 0.000000 8.338629 3.630524 0.756008 -0.429294 4.656190 4.138075 -0.141206 -5.223302 -2.426308 0.000000 0.000000 0.000000 -5.619880 -1.226293 1.403137 -1.322836 -0.581241 0.104861 0.492362 42.631957 -0.672170 0.000000 0.000000 0.000000 -10.138439 1.598897 -1.669364 -10.182664 2.593791 -3.127702 -10.077451 -1.307380 -4.250056 0.000000 0.000000 0.000000 -5.717255 -0.509187 -0.781338 -5.620112 4.728818 -0.674037 -5.508871 2.725503 -2.614369 0.000000 0.000000 0.000000 
389.575500 -19.465876 1151.839966 5.534727 0.128361 1.276015 0.038456 2.683526 -3.789938 0.376582 -0.204935 0.850125 0.254923 0.298865 -0.613279 -0.167984 0.442125 0.617244 0.000000 0.000000 0.000000 9.553709 4.194880 0.414055 -0.787411 5.399467 6.014645 -0.318117 -8.697931 -2.902975 0.000000 0.000000 0.000000 -5.526129 -0.016662 3.206365 -0.728893 0.651570 -1.198550 0.839048 38.884250 0.156951 0.000000 0.000000 0.000000 -10.463942 1.295623 -1.675747 -10.549766 3.535806 -3.184282 -10.415720 -1.018151 -4.585144 0.000000 0.000000 0.000000 -6.590470 -2.039010 -0.055030 -6.377908 7.137918 -1.790187 -6.466721 3.230118 -3.065211 0.000000 0.000000 0.000000 
400.416565 -21.626400 1155.593018 6.511713 1.236566 1.246442 -0.213492 1.414929 -4.839221 0.191858 -0.146539 1.102741 0.044587 0.126182 -0.819611 -0.083077 1.762128 0.186804 0.000000 0.000000 0.000000 9.840579 4.967565 -0.578293 -1.514616 6.282907 8.071678 -0.695597 -14.362799 -2.371210 0.000000 0.000000 0.000000 -4.536945 1.496501 5.474419 -0.133625 2.090269 -2.993815 1.141429 34.425541 0.865782 0.000000 0.000000 0.000000 -10.655853 -0.220295 -1.404249 -10.851336 5.257963 -3.319939 -10.710440 -0.624208 -4.958412 0.000000 0.000000 0.000000 -7.591106 -4.818467 1.272497 -7.226263 10.220586 -3.544259 -7.703004 4.244978 -3.674800 0.000000 0.000000 0.000000 
412.288757 -23.589029 1158.772949 7.249121 2.115820 1.156529 -0.249649 0.248455 -5.780932 0.205568 -0.101072 1.327272 0.035236 -0.024641 -0.996163 0.005256 3.008340 -0.242698 0.000000 0.000000 0.000000 9.840900 5.465555 -1.846246 -2.399141 6.871554 9.969996 -1.152707 -20.529725 0.158590 0.000000 0.000000 0.000000 -3.304505 2.756446 7.097764 0.256681 3.253012 -3.695264 1.353127 30.043044 1.262773 0.000000 0.000000 0.000000 -10.753116 -1.572761 -1.134768 -11.085097 7.196314 -3.472071 -10.980271 -0.196907 -5.331994 0.000000 0.000000 0.000000 -8.345041 -7.673104 2.972754 -7.849487 14.113499 -5.989684 -9.035824 4.916386 -4.268972 0.000000 0.000000 0.000000 
424.757568 -25.049761 1160.693970 7.647382 2.021713 0.948647 0.112079 -0.114949 -6.395932 0.589437 -0.064133 1.508491 0.397291 -0.047397 -1.115288 0.081192 3.832338 -0.563644 0.000000 0.000000 0.000000 9.919034 5.284746 -2.879569 -3.490297 6.771553 11.156743 -1.755244 -27.289071 5.551351 0.000000 0.000000 0.000000 -2.320858 3.295264 7.178804 0.436486 3.708919 -2.134476 1.521079 26.254257 1.502604 0.000000 0.000000 0.000000 -10.795501 -1.908972 -0.925826 -11.244906 9.229950 -3.702302 -11.245841 0.201357 -5.673920 0.000000 0.000000 0.000000 -8.597528 -9.856829 5.004526 -7.995826 19.463118 -9.278478 -10.372718 4.666603 -4.724839 0.000000 0.000000 0.000000 
